<svg width="1738" height="1462" viewBox="0 0 1738 1462" fill="none" xmlns="http://www.w3.org/2000/svg">
<g clip-path="url(#clip0_33_3618)">
<path d="M770.03 99.3378C849.92 543.7 1064.81 813.273 1895.81 734.273L2047.31 488.273L1314.8 17.9658L770.03 99.3378Z" fill="url(#paint0_radial_33_3618)" fill-opacity="0.2"/>
<path d="M1722.35 911.711C1170.37 716.722 561.427 876.315 331.003 1409.28L1002.02 1621.51L1842.81 1485.72C1842.81 1485.72 1826.16 1048.58 1722.35 911.711Z" fill="url(#paint1_radial_33_3618)" fill-opacity="0.2"/>
<path d="M715.677 198.377C836.81 677.274 476.31 1024.27 230.31 1195.77C230.31 1195.77 -158.757 964.711 -205.586 700.811C-247.193 466.366 122.577 -5.0657 122.577 -5.0657L668.499 20.2748L715.677 198.377Z" fill="url(#paint2_radial_33_3618)" fill-opacity="0.2"/>
</g>
<defs>
<radialGradient id="paint0_radial_33_3618" cx="0" cy="0" r="1" gradientUnits="userSpaceOnUse" gradientTransform="translate(1201.31 650.773) rotate(-65.763) scale(561.493 594.247)">
<stop stop-color="#FF813A"/>
<stop offset="0.888614" stop-color="#FF813A" stop-opacity="0"/>
</radialGradient>
<radialGradient id="paint1_radial_33_3618" cx="0" cy="0" r="1" gradientUnits="userSpaceOnUse" gradientTransform="translate(992.697 875.716) rotate(71.0358) scale(590.651 683.122)">
<stop offset="0.4" stop-color="#FF813A"/>
<stop offset="1" stop-color="#FF813A" stop-opacity="0"/>
</radialGradient>
<radialGradient id="paint2_radial_33_3618" cx="0" cy="0" r="1" gradientUnits="userSpaceOnUse" gradientTransform="translate(562.312 615.266) rotate(-170.842) scale(618.889 598.275)">
<stop offset="0.2" stop-color="#FF813A"/>
<stop offset="1" stop-color="#FF813A" stop-opacity="0"/>
</radialGradient>
<clipPath id="clip0_33_3618">
<rect width="1738" height="1462" fill="white"/>
</clipPath>
</defs>
</svg>
