<svg width="400" height="400" viewBox="0 0 400 400" fill="none" xmlns="http://www.w3.org/2000/svg" opacity="0.03">
  <!-- Grid Lines -->
  <path d="M0 40H400M0 80H400M0 120H400M0 160H400M0 200H400M0 240H400M0 280H400M0 320H400M0 360H400" stroke="#37352F" stroke-width="0.5"/>
  <path d="M40 0V400M80 0V400M120 0V400M160 0V400M200 0V400M240 0V400M280 0V400M320 0V400M360 0V400" stroke="#37352F" stroke-width="0.5"/>
  
  <!-- "Architecture" Shapes -->
  <rect x="60" y="60" width="80" height="40" rx="4" stroke="#37352F" stroke-width="1"/>
  <rect x="260" y="140" width="80" height="40" rx="4" stroke="#37352F" stroke-width="1"/>
  <rect x="100" y="260" width="80" height="40" rx="4" stroke="#37352F" stroke-width="1"/>
  
  <!-- Connecting Lines -->
  <path d="M140 80H200V160H260" stroke="#37352F" stroke-width="1" stroke-dasharray="4 4"/>
  <path d="M140 280H220V180" stroke="#37352F" stroke-width="1" stroke-dasharray="4 4"/>
  
  <!-- Code Snippets (Stylized) -->
  <text x="20" y="30" font-family="monospace" font-size="8" fill="#37352F">class Infrastructure {}</text>
  <text x="280" y="380" font-family="monospace" font-size="8" fill="#37352F">def redefine():</text>
  <text x="20" y="350" font-family="monospace" font-size="8" fill="#37352F">apiVersion: v1</text>
</svg>
