<svg width="136" height="29" viewBox="0 0 136 29" fill="none" xmlns="http://www.w3.org/2000/svg">
<g clip-path="url(#clip0_148_1545)">
<path d="M110.677 24.6839C110.677 24.6839 114.782 24.6839 117.388 24.6839C118.032 24.6839 119.004 24.6839 119.636 24.6057C124.317 24.0085 127.976 20.071 127.976 15.3179C127.976 10.5649 124.317 6.62329 119.636 6.03019C119.004 5.94782 118.032 5.95194 117.388 5.95194C114.782 5.95194 110.677 5.95194 110.677 5.95194V24.6839ZM114.992 10.1366H117.232C118.205 10.1366 119.046 10.1366 119.644 10.2931C121.859 10.8573 123.559 12.8961 123.559 15.3138C123.559 17.7315 121.863 19.7703 119.644 20.3346C119.046 20.4869 118.205 20.4911 117.232 20.4911H114.992V10.1366Z" fill="white"/>
<path d="M41.9217 24.6837H46.3421V5.00439L40.6377 7.33148C41.0082 7.85044 41.3071 8.34057 41.5302 8.92955C41.7786 9.58031 41.9217 10.3505 41.9217 11.3967V24.6837Z" fill="white"/>
<path d="M131.579 24.6837H135.999V5.00439L130.295 7.33148C130.665 7.85044 130.964 8.34057 131.187 8.92955C131.436 9.58031 131.579 10.3505 131.579 11.3967V24.6837Z" fill="white"/>
<path d="M105.794 24.6839V5.94775H101.512V17.8797L92.5706 5.05811L87.001 7.32753C87.3714 7.84649 87.6703 8.33662 87.8935 8.9256C88.1419 9.57636 88.285 10.3466 88.285 11.3927V24.6797H92.5664V12.7066L100.915 24.6797H105.79L105.794 24.6839Z" fill="white"/>
<path d="M80.9637 24.6839H85.523L77.2422 5.06226L71.0789 7.57468C71.8872 8.97093 71.6472 9.83175 70.9358 11.5122C69.7317 14.3706 65.3745 24.6839 65.3745 24.6839H69.9338L71.4494 21.0965H79.4523L80.9679 24.6839H80.9637ZM72.9523 17.5255L75.4487 11.6152L77.9452 17.5255H72.9565H72.9523Z" fill="white"/>
<path d="M65.7155 5.94788H49.8105V10.1778H55.5528V24.684H59.9732V10.1778H65.7155V5.94788Z" fill="white"/>
<path d="M4.71924 21.8456L8.94174 28.9999C9.63637 28.2832 10.0068 27.9784 10.4531 27.7025C10.9162 27.4183 11.5477 27.3112 12.5749 27.3812C15.5386 27.5872 21.9881 28.3821 25.2718 28.9711L29.4901 21.8251C20.9946 18.0894 12.9916 18.0358 4.71924 21.8415V21.8456Z" fill="white"/>
<path d="M29.9913 20.9808L34.2138 13.8266C33.2329 13.5959 32.7783 13.4353 32.311 13.1923C31.8311 12.9411 31.4143 12.4592 30.968 11.553C29.6714 8.94177 27.1455 3.07669 26.0256 0H17.5933C18.5363 9.06533 22.4893 15.8777 29.9913 20.9808Z" fill="white"/>
<path d="M16.5911 0H8.14611C8.43238 0.947309 8.52079 1.41273 8.53763 1.92757C8.55447 2.45888 8.33555 3.05198 7.7588 3.88397C6.09169 6.29342 2.16388 11.3636 0 13.8513L4.21829 20.9973C11.7708 15.6635 15.8207 8.90882 16.5911 0Z" fill="white"/>
</g>
<defs>
<clipPath id="clip0_148_1545">
<rect width="136" height="29" fill="white"/>
</clipPath>
</defs>
</svg>
